<?xml version="1.0" encoding="UTF-8"?>
<svg id="Layer_1" xmlns="http://www.w3.org/2000/svg" xmlns:xlink="http://www.w3.org/1999/xlink" version="1.1" viewBox="0 0 400 400">
  <!-- Generator: Adobe Illustrator 30.5.1, SVG Export Plug-In . SVG Version: 2.1.4 Build 3)  -->
  <defs>
    <style>
      .st0 {
        fill: none;
      }

      .st1, .st2, .st3, .st4, .st5 {
        isolation: isolate;
        opacity: .22;
      }

      .st2 {
        fill: #2b2b2b;
      }

      .st3 {
        fill: #4f4f4f;
      }

      .st4 {
        fill: #7f7f7f;
      }

      .st6 {
        fill: url(#linear-gradient);
      }

      .st7 {
        opacity: .28;
      }

      .st5 {
        fill: #bcbcbc;
      }
    </style>
    <linearGradient id="linear-gradient" x1="0" y1="44.44" x2="400" y2="44.44" gradientTransform="translate(155.56 155.56)" gradientUnits="userSpaceOnUse">
      <stop offset="0" stop-color="#1b0630"/>
      <stop offset="1" stop-color="#660fa2"/>
    </linearGradient>
  </defs>
  <rect class="st6" x="155.56" y="-155.56" width="400" height="711.11" transform="translate(555.56 -155.56) rotate(90)"/>
  <g class="st7">
    <path class="st2" d="M212.63-22.8l-16.78-29.21h-33.57l-16.78,29.21,16.78,29.21h33.57l16.78-29.21ZM164.94,1.78l-14.12-24.58,14.12-24.58h28.24l14.12,24.58-14.12,24.58h-28.24Z"/>
    <path class="st3" d="M195.85,72.05h-33.57l-16.78-29.21,16.78-29.21h33.57l16.78,29.21-16.78,29.21Z"/>
    <path class="st4" d="M212.63,108.48l-16.78-29.21h-33.57l-16.78,29.21,16.78,29.21h33.57l16.78-29.21ZM164.94,133.06l-14.12-24.58,14.12-24.58h28.24l14.12,24.58-14.12,24.58h-28.24Z"/>
    <path class="st1" d="M195.85,268.47h-33.57l-16.78-29.09,16.78-29.09h33.57l16.78,29.09-16.78,29.09Z"/>
    <path class="st1" d="M218.84,170.51l-16.91-29.21,16.91-29.21h33.81l16.91,29.21-16.91,29.21h-33.81Z"/>
    <path class="st4" d="M218.84,236.15l-16.91-29.21,16.91-29.21h33.81l16.91,29.21-16.91,29.21h-33.81Z"/>
    <path class="st3" d="M212.63,174.12l-16.78,29.21h-33.57l-16.78-29.21,16.78-29.21h33.57l16.78,29.21Z"/>
    <path class="st1" d="M156.19,10.02l-16.91-29.21h-33.81l-16.91,29.21,16.91,29.21h33.81l16.91-29.21ZM108.15,34.6l-14.22-24.58,14.22-24.58h28.45l14.22,24.58-14.22,24.58h-28.45Z"/>
    <path class="st5" d="M156.19,75.66l-16.91-29.21h-33.81l-16.91,29.21,16.91,29.21h33.81l16.91-29.21ZM108.15,100.24l-14.22-24.58,14.22-24.58h28.45l14.22,24.58-14.22,24.58h-28.45Z"/>
    <path class="st1" d="M156.19,141.3l-16.91-29.21h-33.81l-16.91,29.21,16.91,29.21h33.81l16.91-29.21ZM108.15,165.87l-14.22-24.58,14.22-24.58h28.45l14.22,24.58-14.22,24.58h-28.45Z"/>
    <path class="st4" d="M156.19,206.94l-16.91-29.21h-33.81l-16.91,29.21,16.91,29.21h33.81l16.91-29.21ZM108.15,231.51l-14.22-24.58,14.22-24.58h28.45l14.22,24.58-14.22,24.58h-28.45Z"/>
    <path class="st3" d="M156.19,272.2l-16.91-29.09h-33.81l-16.91,29.09,16.91,29.09h33.81l16.91-29.09ZM108.15,296.68l-14.22-24.47,14.22-24.47h28.45l14.22,24.47-14.22,24.47h-28.45Z"/>
    <path class="st2" d="M139.28,367.18h-33.81l-16.91-29.21,16.91-29.21h33.81l16.91,29.21-16.91,29.21Z"/>
    <path class="st3" d="M99.25-22.8l-16.84-29.21h-33.69l-16.85,29.21L48.72,6.41h33.69l16.84-29.21ZM51.39,1.78l-14.17-24.58,14.17-24.58h28.34l14.17,24.58L79.73,1.78h-28.34Z"/>
    <path class="st2" d="M99.25,42.84l-16.84-29.21h-33.69l-16.85,29.21,16.85,29.21h33.69l16.84-29.21ZM51.39,67.42l-14.17-24.58,14.17-24.58h28.34l14.17,24.58-14.17,24.58h-28.34Z"/>
    <path class="st1" d="M82.41,203.33h-33.69l-16.85-29.21,16.85-29.21h33.69l16.84,29.21-16.84,29.21Z"/>
    <path class="st2" d="M99.25,108.48l-16.84,29.21h-33.69l-16.85-29.21,16.85-29.21h33.69l16.84,29.21Z"/>
    <path class="st1" d="M99.25,239.38l-16.84-29.09h-33.69l-16.85,29.09,16.85,29.09h33.69l16.84-29.09ZM51.39,263.86l-14.17-24.47,14.17-24.47h28.34l14.17,24.47-14.17,24.47h-28.34Z"/>
    <path class="st1" d="M99.25,305.15l-16.84-29.21h-33.69l-16.85,29.21,16.85,29.21h33.69l16.84-29.21ZM51.39,329.72l-14.17-24.58,14.17-24.58h28.34l14.17,24.58-14.17,24.58h-28.34Z"/>
    <path class="st5" d="M99.25,370.79l-16.84-29.21h-33.69l-16.85,29.21,16.85,29.21h33.69l16.84-29.21ZM51.39,395.36l-14.17-24.58,14.17-24.58h28.34l14.17,24.58-14.17,24.58h-28.34Z"/>
    <path class="st1" d="M42.56,75.66l-16.91-29.21H-8.16l-16.91,29.21,16.91,29.21H25.66l16.91-29.21ZM-5.47,100.24l-14.22-24.58,14.22-24.58h28.45l14.22,24.58-14.22,24.58H-5.47Z"/>
    <path class="st1" d="M42.56,141.3l-16.91-29.21H-8.16l-16.91,29.21,16.91,29.21H25.66l16.91-29.21ZM-5.47,165.87l-14.22-24.58,14.22-24.58h28.45l14.22,24.58-14.22,24.58H-5.47Z"/>
    <path class="st5" d="M42.56,206.94l-16.91-29.21H-8.16l-16.91,29.21,16.91,29.21H25.66l16.91-29.21ZM-5.47,231.51l-14.22-24.58,14.22-24.58h28.45l14.22,24.58-14.22,24.58H-5.47Z"/>
    <path class="st2" d="M-8.16,301.29l-16.91-29.09,16.91-29.09H25.66l16.91,29.09-16.91,29.09H-8.16Z"/>
    <path class="st3" d="M-8.16,367.18l-16.91-29.21,16.91-29.21H25.66l16.91,29.21-16.91,29.21H-8.16Z"/>
    <path class="st4" d="M-25.06,10.02L-8.16-19.2H25.66l16.91,29.21-16.91,29.21H-8.16L-25.06,10.02Z"/>
  </g>
  <rect class="st0" width="711.11" height="400"/>
</svg>