<svg xmlns="http://www.w3.org/2000/svg" viewBox="0 0 400 400">
<path d="M-342.00,-342.86 L-358.50,-370.86 L-391.50,-370.86 L-408.00,-342.86 L-391.50,-314.86 L-358.50,-314.86 Z" fill="#FFFFFF" opacity="0.36"/>
<path d="M-342.00,57.14 L-358.50,29.14 L-391.50,29.14 L-408.00,57.14 L-391.50,85.14 L-358.50,85.14 Z" fill="#FFFFFF" opacity="0.36"/>
<path d="M-342.00,457.14 L-358.50,429.14 L-391.50,429.14 L-408.00,457.14 L-391.50,485.14 L-358.50,485.14 Z" fill="#FFFFFF" opacity="0.36"/>
<path d="M58.00,-342.86 L41.50,-370.86 L8.50,-370.86 L-8.00,-342.86 L8.50,-314.86 L41.50,-314.86 Z" fill="#FFFFFF" opacity="0.36"/>
<path d="M58.00,57.14 L41.50,29.14 L8.50,29.14 L-8.00,57.14 L8.50,85.14 L41.50,85.14 Z" fill="#FFFFFF" opacity="0.36"/>
<path d="M58.00,457.14 L41.50,429.14 L8.50,429.14 L-8.00,457.14 L8.50,485.14 L41.50,485.14 Z" fill="#FFFFFF" opacity="0.36"/>
<path d="M458.00,-342.86 L441.50,-370.86 L408.50,-370.86 L392.00,-342.86 L408.50,-314.86 L441.50,-314.86 Z" fill="#FFFFFF" opacity="0.36"/>
<path d="M458.00,57.14 L441.50,29.14 L408.50,29.14 L392.00,57.14 L408.50,85.14 L441.50,85.14 Z" fill="#FFFFFF" opacity="0.36"/>
<path d="M458.00,457.14 L441.50,429.14 L408.50,429.14 L392.00,457.14 L408.50,485.14 L441.50,485.14 Z" fill="#FFFFFF" opacity="0.36"/>
<path d="M-342.00,-228.57 L-358.50,-256.57 L-391.50,-256.57 L-408.00,-228.57 L-391.50,-200.57 L-358.50,-200.57 Z" fill="none" stroke="#FFFFFF" stroke-width="3.2" opacity="0.26"/>
<path d="M-342.00,171.43 L-358.50,143.43 L-391.50,143.43 L-408.00,171.43 L-391.50,199.43 L-358.50,199.43 Z" fill="none" stroke="#FFFFFF" stroke-width="3.2" opacity="0.26"/>
<path d="M-342.00,571.43 L-358.50,543.43 L-391.50,543.43 L-408.00,571.43 L-391.50,599.43 L-358.50,599.43 Z" fill="none" stroke="#FFFFFF" stroke-width="3.2" opacity="0.26"/>
<path d="M58.00,-228.57 L41.50,-256.57 L8.50,-256.57 L-8.00,-228.57 L8.50,-200.57 L41.50,-200.57 Z" fill="none" stroke="#FFFFFF" stroke-width="3.2" opacity="0.26"/>
<path d="M58.00,171.43 L41.50,143.43 L8.50,143.43 L-8.00,171.43 L8.50,199.43 L41.50,199.43 Z" fill="none" stroke="#FFFFFF" stroke-width="3.2" opacity="0.26"/>
<path d="M58.00,571.43 L41.50,543.43 L8.50,543.43 L-8.00,571.43 L8.50,599.43 L41.50,599.43 Z" fill="none" stroke="#FFFFFF" stroke-width="3.2" opacity="0.26"/>
<path d="M458.00,-228.57 L441.50,-256.57 L408.50,-256.57 L392.00,-228.57 L408.50,-200.57 L441.50,-200.57 Z" fill="none" stroke="#FFFFFF" stroke-width="3.2" opacity="0.26"/>
<path d="M458.00,171.43 L441.50,143.43 L408.50,143.43 L392.00,171.43 L408.50,199.43 L441.50,199.43 Z" fill="none" stroke="#FFFFFF" stroke-width="3.2" opacity="0.26"/>
<path d="M458.00,571.43 L441.50,543.43 L408.50,543.43 L392.00,571.43 L408.50,599.43 L441.50,599.43 Z" fill="none" stroke="#FFFFFF" stroke-width="3.2" opacity="0.26"/>
<path d="M-342.00,-57.14 L-358.50,-85.14 L-391.50,-85.14 L-408.00,-57.14 L-391.50,-29.14 L-358.50,-29.14 Z" fill="#FFFFFF" opacity="0.18"/>
<path d="M-342.00,342.86 L-358.50,314.86 L-391.50,314.86 L-408.00,342.86 L-391.50,370.86 L-358.50,370.86 Z" fill="#FFFFFF" opacity="0.18"/>
<path d="M-342.00,742.86 L-358.50,714.86 L-391.50,714.86 L-408.00,742.86 L-391.50,770.86 L-358.50,770.86 Z" fill="#FFFFFF" opacity="0.18"/>
<path d="M58.00,-57.14 L41.50,-85.14 L8.50,-85.14 L-8.00,-57.14 L8.50,-29.14 L41.50,-29.14 Z" fill="#FFFFFF" opacity="0.18"/>
<path d="M58.00,342.86 L41.50,314.86 L8.50,314.86 L-8.00,342.86 L8.50,370.86 L41.50,370.86 Z" fill="#FFFFFF" opacity="0.18"/>
<path d="M58.00,742.86 L41.50,714.86 L8.50,714.86 L-8.00,742.86 L8.50,770.86 L41.50,770.86 Z" fill="#FFFFFF" opacity="0.18"/>
<path d="M458.00,-57.14 L441.50,-85.14 L408.50,-85.14 L392.00,-57.14 L408.50,-29.14 L441.50,-29.14 Z" fill="#FFFFFF" opacity="0.18"/>
<path d="M458.00,342.86 L441.50,314.86 L408.50,314.86 L392.00,342.86 L408.50,370.86 L441.50,370.86 Z" fill="#FFFFFF" opacity="0.18"/>
<path d="M458.00,742.86 L441.50,714.86 L408.50,714.86 L392.00,742.86 L408.50,770.86 L441.50,770.86 Z" fill="#FFFFFF" opacity="0.18"/>
<path d="M-292.00,-257.14 L-308.50,-285.14 L-341.50,-285.14 L-358.00,-257.14 L-341.50,-229.14 L-308.50,-229.14 Z" fill="#FFFFFF" opacity="0.5"/>
<path d="M-292.00,142.86 L-308.50,114.86 L-341.50,114.86 L-358.00,142.86 L-341.50,170.86 L-308.50,170.86 Z" fill="#FFFFFF" opacity="0.5"/>
<path d="M-292.00,542.86 L-308.50,514.86 L-341.50,514.86 L-358.00,542.86 L-341.50,570.86 L-308.50,570.86 Z" fill="#FFFFFF" opacity="0.5"/>
<path d="M108.00,-257.14 L91.50,-285.14 L58.50,-285.14 L42.00,-257.14 L58.50,-229.14 L91.50,-229.14 Z" fill="#FFFFFF" opacity="0.5"/>
<path d="M108.00,142.86 L91.50,114.86 L58.50,114.86 L42.00,142.86 L58.50,170.86 L91.50,170.86 Z" fill="#FFFFFF" opacity="0.5"/>
<path d="M108.00,542.86 L91.50,514.86 L58.50,514.86 L42.00,542.86 L58.50,570.86 L91.50,570.86 Z" fill="#FFFFFF" opacity="0.5"/>
<path d="M508.00,-257.14 L491.50,-285.14 L458.50,-285.14 L442.00,-257.14 L458.50,-229.14 L491.50,-229.14 Z" fill="#FFFFFF" opacity="0.5"/>
<path d="M508.00,142.86 L491.50,114.86 L458.50,114.86 L442.00,142.86 L458.50,170.86 L491.50,170.86 Z" fill="#FFFFFF" opacity="0.5"/>
<path d="M508.00,542.86 L491.50,514.86 L458.50,514.86 L442.00,542.86 L458.50,570.86 L491.50,570.86 Z" fill="#FFFFFF" opacity="0.5"/>
<path d="M-292.00,-200.00 L-308.50,-228.00 L-341.50,-228.00 L-358.00,-200.00 L-341.50,-172.00 L-308.50,-172.00 Z" fill="none" stroke="#FFFFFF" stroke-width="3.2" opacity="0.5"/>
<path d="M-292.00,200.00 L-308.50,172.00 L-341.50,172.00 L-358.00,200.00 L-341.50,228.00 L-308.50,228.00 Z" fill="none" stroke="#FFFFFF" stroke-width="3.2" opacity="0.5"/>
<path d="M-292.00,600.00 L-308.50,572.00 L-341.50,572.00 L-358.00,600.00 L-341.50,628.00 L-308.50,628.00 Z" fill="none" stroke="#FFFFFF" stroke-width="3.2" opacity="0.5"/>
<path d="M108.00,-200.00 L91.50,-228.00 L58.50,-228.00 L42.00,-200.00 L58.50,-172.00 L91.50,-172.00 Z" fill="none" stroke="#FFFFFF" stroke-width="3.2" opacity="0.5"/>
<path d="M108.00,200.00 L91.50,172.00 L58.50,172.00 L42.00,200.00 L58.50,228.00 L91.50,228.00 Z" fill="none" stroke="#FFFFFF" stroke-width="3.2" opacity="0.5"/>
<path d="M108.00,600.00 L91.50,572.00 L58.50,572.00 L42.00,600.00 L58.50,628.00 L91.50,628.00 Z" fill="none" stroke="#FFFFFF" stroke-width="3.2" opacity="0.5"/>
<path d="M508.00,-200.00 L491.50,-228.00 L458.50,-228.00 L442.00,-200.00 L458.50,-172.00 L491.50,-172.00 Z" fill="none" stroke="#FFFFFF" stroke-width="3.2" opacity="0.5"/>
<path d="M508.00,200.00 L491.50,172.00 L458.50,172.00 L442.00,200.00 L458.50,228.00 L491.50,228.00 Z" fill="none" stroke="#FFFFFF" stroke-width="3.2" opacity="0.5"/>
<path d="M508.00,600.00 L491.50,572.00 L458.50,572.00 L442.00,600.00 L458.50,628.00 L491.50,628.00 Z" fill="none" stroke="#FFFFFF" stroke-width="3.2" opacity="0.5"/>
<path d="M-292.00,-142.86 L-308.50,-170.86 L-341.50,-170.86 L-358.00,-142.86 L-341.50,-114.86 L-308.50,-114.86 Z" fill="none" stroke="#FFFFFF" stroke-width="3.2" opacity="0.7"/>
<path d="M-292.00,257.14 L-308.50,229.14 L-341.50,229.14 L-358.00,257.14 L-341.50,285.14 L-308.50,285.14 Z" fill="none" stroke="#FFFFFF" stroke-width="3.2" opacity="0.7"/>
<path d="M-292.00,657.14 L-308.50,629.14 L-341.50,629.14 L-358.00,657.14 L-341.50,685.14 L-308.50,685.14 Z" fill="none" stroke="#FFFFFF" stroke-width="3.2" opacity="0.7"/>
<path d="M108.00,-142.86 L91.50,-170.86 L58.50,-170.86 L42.00,-142.86 L58.50,-114.86 L91.50,-114.86 Z" fill="none" stroke="#FFFFFF" stroke-width="3.2" opacity="0.7"/>
<path d="M108.00,257.14 L91.50,229.14 L58.50,229.14 L42.00,257.14 L58.50,285.14 L91.50,285.14 Z" fill="none" stroke="#FFFFFF" stroke-width="3.2" opacity="0.7"/>
<path d="M108.00,657.14 L91.50,629.14 L58.50,629.14 L42.00,657.14 L58.50,685.14 L91.50,685.14 Z" fill="none" stroke="#FFFFFF" stroke-width="3.2" opacity="0.7"/>
<path d="M508.00,-142.86 L491.50,-170.86 L458.50,-170.86 L442.00,-142.86 L458.50,-114.86 L491.50,-114.86 Z" fill="none" stroke="#FFFFFF" stroke-width="3.2" opacity="0.7"/>
<path d="M508.00,257.14 L491.50,229.14 L458.50,229.14 L442.00,257.14 L458.50,285.14 L491.50,285.14 Z" fill="none" stroke="#FFFFFF" stroke-width="3.2" opacity="0.7"/>
<path d="M508.00,657.14 L491.50,629.14 L458.50,629.14 L442.00,657.14 L458.50,685.14 L491.50,685.14 Z" fill="none" stroke="#FFFFFF" stroke-width="3.2" opacity="0.7"/>
<path d="M-242.00,-400.00 L-258.50,-428.00 L-291.50,-428.00 L-308.00,-400.00 L-291.50,-372.00 L-258.50,-372.00 Z" fill="#FFFFFF" opacity="0.18"/>
<path d="M-242.00,0.00 L-258.50,-28.00 L-291.50,-28.00 L-308.00,0.00 L-291.50,28.00 L-258.50,28.00 Z" fill="#FFFFFF" opacity="0.18"/>
<path d="M-242.00,400.00 L-258.50,372.00 L-291.50,372.00 L-308.00,400.00 L-291.50,428.00 L-258.50,428.00 Z" fill="#FFFFFF" opacity="0.18"/>
<path d="M158.00,-400.00 L141.50,-428.00 L108.50,-428.00 L92.00,-400.00 L108.50,-372.00 L141.50,-372.00 Z" fill="#FFFFFF" opacity="0.18"/>
<path d="M158.00,0.00 L141.50,-28.00 L108.50,-28.00 L92.00,0.00 L108.50,28.00 L141.50,28.00 Z" fill="#FFFFFF" opacity="0.18"/>
<path d="M158.00,400.00 L141.50,372.00 L108.50,372.00 L92.00,400.00 L108.50,428.00 L141.50,428.00 Z" fill="#FFFFFF" opacity="0.18"/>
<path d="M558.00,-400.00 L541.50,-428.00 L508.50,-428.00 L492.00,-400.00 L508.50,-372.00 L541.50,-372.00 Z" fill="#FFFFFF" opacity="0.18"/>
<path d="M558.00,0.00 L541.50,-28.00 L508.50,-28.00 L492.00,0.00 L508.50,28.00 L541.50,28.00 Z" fill="#FFFFFF" opacity="0.18"/>
<path d="M558.00,400.00 L541.50,372.00 L508.50,372.00 L492.00,400.00 L508.50,428.00 L541.50,428.00 Z" fill="#FFFFFF" opacity="0.18"/>
<path d="M-242.00,-285.71 L-258.50,-313.71 L-291.50,-313.71 L-308.00,-285.71 L-291.50,-257.71 L-258.50,-257.71 Z" fill="none" stroke="#FFFFFF" stroke-width="3.2" opacity="0.7"/>
<path d="M-242.00,114.29 L-258.50,86.29 L-291.50,86.29 L-308.00,114.29 L-291.50,142.29 L-258.50,142.29 Z" fill="none" stroke="#FFFFFF" stroke-width="3.2" opacity="0.7"/>
<path d="M-242.00,514.29 L-258.50,486.29 L-291.50,486.29 L-308.00,514.29 L-291.50,542.29 L-258.50,542.29 Z" fill="none" stroke="#FFFFFF" stroke-width="3.2" opacity="0.7"/>
<path d="M158.00,-285.71 L141.50,-313.71 L108.50,-313.71 L92.00,-285.71 L108.50,-257.71 L141.50,-257.71 Z" fill="none" stroke="#FFFFFF" stroke-width="3.2" opacity="0.7"/>
<path d="M158.00,114.29 L141.50,86.29 L108.50,86.29 L92.00,114.29 L108.50,142.29 L141.50,142.29 Z" fill="none" stroke="#FFFFFF" stroke-width="3.2" opacity="0.7"/>
<path d="M158.00,514.29 L141.50,486.29 L108.50,486.29 L92.00,514.29 L108.50,542.29 L141.50,542.29 Z" fill="none" stroke="#FFFFFF" stroke-width="3.2" opacity="0.7"/>
<path d="M558.00,-285.71 L541.50,-313.71 L508.50,-313.71 L492.00,-285.71 L508.50,-257.71 L541.50,-257.71 Z" fill="none" stroke="#FFFFFF" stroke-width="3.2" opacity="0.7"/>
<path d="M558.00,114.29 L541.50,86.29 L508.50,86.29 L492.00,114.29 L508.50,142.29 L541.50,142.29 Z" fill="none" stroke="#FFFFFF" stroke-width="3.2" opacity="0.7"/>
<path d="M558.00,514.29 L541.50,486.29 L508.50,486.29 L492.00,514.29 L508.50,542.29 L541.50,542.29 Z" fill="none" stroke="#FFFFFF" stroke-width="3.2" opacity="0.7"/>
<path d="M-242.00,-228.57 L-258.50,-256.57 L-291.50,-256.57 L-308.00,-228.57 L-291.50,-200.57 L-258.50,-200.57 Z" fill="none" stroke="#FFFFFF" stroke-width="3.2" opacity="0.7"/>
<path d="M-242.00,171.43 L-258.50,143.43 L-291.50,143.43 L-308.00,171.43 L-291.50,199.43 L-258.50,199.43 Z" fill="none" stroke="#FFFFFF" stroke-width="3.2" opacity="0.7"/>
<path d="M-242.00,571.43 L-258.50,543.43 L-291.50,543.43 L-308.00,571.43 L-291.50,599.43 L-258.50,599.43 Z" fill="none" stroke="#FFFFFF" stroke-width="3.2" opacity="0.7"/>
<path d="M158.00,-228.57 L141.50,-256.57 L108.50,-256.57 L92.00,-228.57 L108.50,-200.57 L141.50,-200.57 Z" fill="none" stroke="#FFFFFF" stroke-width="3.2" opacity="0.7"/>
<path d="M158.00,171.43 L141.50,143.43 L108.50,143.43 L92.00,171.43 L108.50,199.43 L141.50,199.43 Z" fill="none" stroke="#FFFFFF" stroke-width="3.2" opacity="0.7"/>
<path d="M158.00,571.43 L141.50,543.43 L108.50,543.43 L92.00,571.43 L108.50,599.43 L141.50,599.43 Z" fill="none" stroke="#FFFFFF" stroke-width="3.2" opacity="0.7"/>
<path d="M558.00,-228.57 L541.50,-256.57 L508.50,-256.57 L492.00,-228.57 L508.50,-200.57 L541.50,-200.57 Z" fill="none" stroke="#FFFFFF" stroke-width="3.2" opacity="0.7"/>
<path d="M558.00,171.43 L541.50,143.43 L508.50,143.43 L492.00,171.43 L508.50,199.43 L541.50,199.43 Z" fill="none" stroke="#FFFFFF" stroke-width="3.2" opacity="0.7"/>
<path d="M558.00,571.43 L541.50,543.43 L508.50,543.43 L492.00,571.43 L508.50,599.43 L541.50,599.43 Z" fill="none" stroke="#FFFFFF" stroke-width="3.2" opacity="0.7"/>
<path d="M-242.00,-114.29 L-258.50,-142.29 L-291.50,-142.29 L-308.00,-114.29 L-291.50,-86.29 L-258.50,-86.29 Z" fill="#FFFFFF" opacity="0.26"/>
<path d="M-242.00,285.71 L-258.50,257.71 L-291.50,257.71 L-308.00,285.71 L-291.50,313.71 L-258.50,313.71 Z" fill="#FFFFFF" opacity="0.26"/>
<path d="M-242.00,685.71 L-258.50,657.71 L-291.50,657.71 L-308.00,685.71 L-291.50,713.71 L-258.50,713.71 Z" fill="#FFFFFF" opacity="0.26"/>
<path d="M158.00,-114.29 L141.50,-142.29 L108.50,-142.29 L92.00,-114.29 L108.50,-86.29 L141.50,-86.29 Z" fill="#FFFFFF" opacity="0.26"/>
<path d="M158.00,285.71 L141.50,257.71 L108.50,257.71 L92.00,285.71 L108.50,313.71 L141.50,313.71 Z" fill="#FFFFFF" opacity="0.26"/>
<path d="M158.00,685.71 L141.50,657.71 L108.50,657.71 L92.00,685.71 L108.50,713.71 L141.50,713.71 Z" fill="#FFFFFF" opacity="0.26"/>
<path d="M558.00,-114.29 L541.50,-142.29 L508.50,-142.29 L492.00,-114.29 L508.50,-86.29 L541.50,-86.29 Z" fill="#FFFFFF" opacity="0.26"/>
<path d="M558.00,285.71 L541.50,257.71 L508.50,257.71 L492.00,285.71 L508.50,313.71 L541.50,313.71 Z" fill="#FFFFFF" opacity="0.26"/>
<path d="M558.00,685.71 L541.50,657.71 L508.50,657.71 L492.00,685.71 L508.50,713.71 L541.50,713.71 Z" fill="#FFFFFF" opacity="0.26"/>
<path d="M-242.00,-57.14 L-258.50,-85.14 L-291.50,-85.14 L-308.00,-57.14 L-291.50,-29.14 L-258.50,-29.14 Z" fill="none" stroke="#FFFFFF" stroke-width="3.2" opacity="0.26"/>
<path d="M-242.00,342.86 L-258.50,314.86 L-291.50,314.86 L-308.00,342.86 L-291.50,370.86 L-258.50,370.86 Z" fill="none" stroke="#FFFFFF" stroke-width="3.2" opacity="0.26"/>
<path d="M-242.00,742.86 L-258.50,714.86 L-291.50,714.86 L-308.00,742.86 L-291.50,770.86 L-258.50,770.86 Z" fill="none" stroke="#FFFFFF" stroke-width="3.2" opacity="0.26"/>
<path d="M158.00,-57.14 L141.50,-85.14 L108.50,-85.14 L92.00,-57.14 L108.50,-29.14 L141.50,-29.14 Z" fill="none" stroke="#FFFFFF" stroke-width="3.2" opacity="0.26"/>
<path d="M158.00,342.86 L141.50,314.86 L108.50,314.86 L92.00,342.86 L108.50,370.86 L141.50,370.86 Z" fill="none" stroke="#FFFFFF" stroke-width="3.2" opacity="0.26"/>
<path d="M158.00,742.86 L141.50,714.86 L108.50,714.86 L92.00,742.86 L108.50,770.86 L141.50,770.86 Z" fill="none" stroke="#FFFFFF" stroke-width="3.2" opacity="0.26"/>
<path d="M558.00,-57.14 L541.50,-85.14 L508.50,-85.14 L492.00,-57.14 L508.50,-29.14 L541.50,-29.14 Z" fill="none" stroke="#FFFFFF" stroke-width="3.2" opacity="0.26"/>
<path d="M558.00,342.86 L541.50,314.86 L508.50,314.86 L492.00,342.86 L508.50,370.86 L541.50,370.86 Z" fill="none" stroke="#FFFFFF" stroke-width="3.2" opacity="0.26"/>
<path d="M558.00,742.86 L541.50,714.86 L508.50,714.86 L492.00,742.86 L508.50,770.86 L541.50,770.86 Z" fill="none" stroke="#FFFFFF" stroke-width="3.2" opacity="0.26"/>
<path d="M-192.00,-257.14 L-208.50,-285.14 L-241.50,-285.14 L-258.00,-257.14 L-241.50,-229.14 L-208.50,-229.14 Z" fill="#FFFFFF" opacity="0.36"/>
<path d="M-192.00,142.86 L-208.50,114.86 L-241.50,114.86 L-258.00,142.86 L-241.50,170.86 L-208.50,170.86 Z" fill="#FFFFFF" opacity="0.36"/>
<path d="M-192.00,542.86 L-208.50,514.86 L-241.50,514.86 L-258.00,542.86 L-241.50,570.86 L-208.50,570.86 Z" fill="#FFFFFF" opacity="0.36"/>
<path d="M208.00,-257.14 L191.50,-285.14 L158.50,-285.14 L142.00,-257.14 L158.50,-229.14 L191.50,-229.14 Z" fill="#FFFFFF" opacity="0.36"/>
<path d="M208.00,142.86 L191.50,114.86 L158.50,114.86 L142.00,142.86 L158.50,170.86 L191.50,170.86 Z" fill="#FFFFFF" opacity="0.36"/>
<path d="M208.00,542.86 L191.50,514.86 L158.50,514.86 L142.00,542.86 L158.50,570.86 L191.50,570.86 Z" fill="#FFFFFF" opacity="0.36"/>
<path d="M608.00,-257.14 L591.50,-285.14 L558.50,-285.14 L542.00,-257.14 L558.50,-229.14 L591.50,-229.14 Z" fill="#FFFFFF" opacity="0.36"/>
<path d="M608.00,142.86 L591.50,114.86 L558.50,114.86 L542.00,142.86 L558.50,170.86 L591.50,170.86 Z" fill="#FFFFFF" opacity="0.36"/>
<path d="M608.00,542.86 L591.50,514.86 L558.50,514.86 L542.00,542.86 L558.50,570.86 L591.50,570.86 Z" fill="#FFFFFF" opacity="0.36"/>
<path d="M-192.00,-85.71 L-208.50,-113.71 L-241.50,-113.71 L-258.00,-85.71 L-241.50,-57.71 L-208.50,-57.71 Z" fill="none" stroke="#FFFFFF" stroke-width="3.2" opacity="0.7"/>
<path d="M-192.00,314.29 L-208.50,286.29 L-241.50,286.29 L-258.00,314.29 L-241.50,342.29 L-208.50,342.29 Z" fill="none" stroke="#FFFFFF" stroke-width="3.2" opacity="0.7"/>
<path d="M-192.00,714.29 L-208.50,686.29 L-241.50,686.29 L-258.00,714.29 L-241.50,742.29 L-208.50,742.29 Z" fill="none" stroke="#FFFFFF" stroke-width="3.2" opacity="0.7"/>
<path d="M208.00,-85.71 L191.50,-113.71 L158.50,-113.71 L142.00,-85.71 L158.50,-57.71 L191.50,-57.71 Z" fill="none" stroke="#FFFFFF" stroke-width="3.2" opacity="0.7"/>
<path d="M208.00,314.29 L191.50,286.29 L158.50,286.29 L142.00,314.29 L158.50,342.29 L191.50,342.29 Z" fill="none" stroke="#FFFFFF" stroke-width="3.2" opacity="0.7"/>
<path d="M208.00,714.29 L191.50,686.29 L158.50,686.29 L142.00,714.29 L158.50,742.29 L191.50,742.29 Z" fill="none" stroke="#FFFFFF" stroke-width="3.2" opacity="0.7"/>
<path d="M608.00,-85.71 L591.50,-113.71 L558.50,-113.71 L542.00,-85.71 L558.50,-57.71 L591.50,-57.71 Z" fill="none" stroke="#FFFFFF" stroke-width="3.2" opacity="0.7"/>
<path d="M608.00,314.29 L591.50,286.29 L558.50,286.29 L542.00,314.29 L558.50,342.29 L591.50,342.29 Z" fill="none" stroke="#FFFFFF" stroke-width="3.2" opacity="0.7"/>
<path d="M608.00,714.29 L591.50,686.29 L558.50,686.29 L542.00,714.29 L558.50,742.29 L591.50,742.29 Z" fill="none" stroke="#FFFFFF" stroke-width="3.2" opacity="0.7"/>
<path d="M-142.00,-400.00 L-158.50,-428.00 L-191.50,-428.00 L-208.00,-400.00 L-191.50,-372.00 L-158.50,-372.00 Z" fill="none" stroke="#FFFFFF" stroke-width="3.2" opacity="0.7"/>
<path d="M-142.00,0.00 L-158.50,-28.00 L-191.50,-28.00 L-208.00,0.00 L-191.50,28.00 L-158.50,28.00 Z" fill="none" stroke="#FFFFFF" stroke-width="3.2" opacity="0.7"/>
<path d="M-142.00,400.00 L-158.50,372.00 L-191.50,372.00 L-208.00,400.00 L-191.50,428.00 L-158.50,428.00 Z" fill="none" stroke="#FFFFFF" stroke-width="3.2" opacity="0.7"/>
<path d="M258.00,-400.00 L241.50,-428.00 L208.50,-428.00 L192.00,-400.00 L208.50,-372.00 L241.50,-372.00 Z" fill="none" stroke="#FFFFFF" stroke-width="3.2" opacity="0.7"/>
<path d="M258.00,0.00 L241.50,-28.00 L208.50,-28.00 L192.00,0.00 L208.50,28.00 L241.50,28.00 Z" fill="none" stroke="#FFFFFF" stroke-width="3.2" opacity="0.7"/>
<path d="M258.00,400.00 L241.50,372.00 L208.50,372.00 L192.00,400.00 L208.50,428.00 L241.50,428.00 Z" fill="none" stroke="#FFFFFF" stroke-width="3.2" opacity="0.7"/>
<path d="M658.00,-400.00 L641.50,-428.00 L608.50,-428.00 L592.00,-400.00 L608.50,-372.00 L641.50,-372.00 Z" fill="none" stroke="#FFFFFF" stroke-width="3.2" opacity="0.7"/>
<path d="M658.00,0.00 L641.50,-28.00 L608.50,-28.00 L592.00,0.00 L608.50,28.00 L641.50,28.00 Z" fill="none" stroke="#FFFFFF" stroke-width="3.2" opacity="0.7"/>
<path d="M658.00,400.00 L641.50,372.00 L608.50,372.00 L592.00,400.00 L608.50,428.00 L641.50,428.00 Z" fill="none" stroke="#FFFFFF" stroke-width="3.2" opacity="0.7"/>
<path d="M-142.00,-342.86 L-158.50,-370.86 L-191.50,-370.86 L-208.00,-342.86 L-191.50,-314.86 L-158.50,-314.86 Z" fill="#FFFFFF" opacity="0.7"/>
<path d="M-142.00,57.14 L-158.50,29.14 L-191.50,29.14 L-208.00,57.14 L-191.50,85.14 L-158.50,85.14 Z" fill="#FFFFFF" opacity="0.7"/>
<path d="M-142.00,457.14 L-158.50,429.14 L-191.50,429.14 L-208.00,457.14 L-191.50,485.14 L-158.50,485.14 Z" fill="#FFFFFF" opacity="0.7"/>
<path d="M258.00,-342.86 L241.50,-370.86 L208.50,-370.86 L192.00,-342.86 L208.50,-314.86 L241.50,-314.86 Z" fill="#FFFFFF" opacity="0.7"/>
<path d="M258.00,57.14 L241.50,29.14 L208.50,29.14 L192.00,57.14 L208.50,85.14 L241.50,85.14 Z" fill="#FFFFFF" opacity="0.7"/>
<path d="M258.00,457.14 L241.50,429.14 L208.50,429.14 L192.00,457.14 L208.50,485.14 L241.50,485.14 Z" fill="#FFFFFF" opacity="0.7"/>
<path d="M658.00,-342.86 L641.50,-370.86 L608.50,-370.86 L592.00,-342.86 L608.50,-314.86 L641.50,-314.86 Z" fill="#FFFFFF" opacity="0.7"/>
<path d="M658.00,57.14 L641.50,29.14 L608.50,29.14 L592.00,57.14 L608.50,85.14 L641.50,85.14 Z" fill="#FFFFFF" opacity="0.7"/>
<path d="M658.00,457.14 L641.50,429.14 L608.50,429.14 L592.00,457.14 L608.50,485.14 L641.50,485.14 Z" fill="#FFFFFF" opacity="0.7"/>
<path d="M-142.00,-228.57 L-158.50,-256.57 L-191.50,-256.57 L-208.00,-228.57 L-191.50,-200.57 L-158.50,-200.57 Z" fill="none" stroke="#FFFFFF" stroke-width="3.2" opacity="0.36"/>
<path d="M-142.00,171.43 L-158.50,143.43 L-191.50,143.43 L-208.00,171.43 L-191.50,199.43 L-158.50,199.43 Z" fill="none" stroke="#FFFFFF" stroke-width="3.2" opacity="0.36"/>
<path d="M-142.00,571.43 L-158.50,543.43 L-191.50,543.43 L-208.00,571.43 L-191.50,599.43 L-158.50,599.43 Z" fill="none" stroke="#FFFFFF" stroke-width="3.2" opacity="0.36"/>
<path d="M258.00,-228.57 L241.50,-256.57 L208.50,-256.57 L192.00,-228.57 L208.50,-200.57 L241.50,-200.57 Z" fill="none" stroke="#FFFFFF" stroke-width="3.2" opacity="0.36"/>
<path d="M258.00,171.43 L241.50,143.43 L208.50,143.43 L192.00,171.43 L208.50,199.43 L241.50,199.43 Z" fill="none" stroke="#FFFFFF" stroke-width="3.2" opacity="0.36"/>
<path d="M258.00,571.43 L241.50,543.43 L208.50,543.43 L192.00,571.43 L208.50,599.43 L241.50,599.43 Z" fill="none" stroke="#FFFFFF" stroke-width="3.2" opacity="0.36"/>
<path d="M658.00,-228.57 L641.50,-256.57 L608.50,-256.57 L592.00,-228.57 L608.50,-200.57 L641.50,-200.57 Z" fill="none" stroke="#FFFFFF" stroke-width="3.2" opacity="0.36"/>
<path d="M658.00,171.43 L641.50,143.43 L608.50,143.43 L592.00,171.43 L608.50,199.43 L641.50,199.43 Z" fill="none" stroke="#FFFFFF" stroke-width="3.2" opacity="0.36"/>
<path d="M658.00,571.43 L641.50,543.43 L608.50,543.43 L592.00,571.43 L608.50,599.43 L641.50,599.43 Z" fill="none" stroke="#FFFFFF" stroke-width="3.2" opacity="0.36"/>
<path d="M-142.00,-171.43 L-158.50,-199.43 L-191.50,-199.43 L-208.00,-171.43 L-191.50,-143.43 L-158.50,-143.43 Z" fill="#FFFFFF" opacity="0.5"/>
<path d="M-142.00,228.57 L-158.50,200.57 L-191.50,200.57 L-208.00,228.57 L-191.50,256.57 L-158.50,256.57 Z" fill="#FFFFFF" opacity="0.5"/>
<path d="M-142.00,628.57 L-158.50,600.57 L-191.50,600.57 L-208.00,628.57 L-191.50,656.57 L-158.50,656.57 Z" fill="#FFFFFF" opacity="0.5"/>
<path d="M258.00,-171.43 L241.50,-199.43 L208.50,-199.43 L192.00,-171.43 L208.50,-143.43 L241.50,-143.43 Z" fill="#FFFFFF" opacity="0.5"/>
<path d="M258.00,228.57 L241.50,200.57 L208.50,200.57 L192.00,228.57 L208.50,256.57 L241.50,256.57 Z" fill="#FFFFFF" opacity="0.5"/>
<path d="M258.00,628.57 L241.50,600.57 L208.50,600.57 L192.00,628.57 L208.50,656.57 L241.50,656.57 Z" fill="#FFFFFF" opacity="0.5"/>
<path d="M658.00,-171.43 L641.50,-199.43 L608.50,-199.43 L592.00,-171.43 L608.50,-143.43 L641.50,-143.43 Z" fill="#FFFFFF" opacity="0.5"/>
<path d="M658.00,228.57 L641.50,200.57 L608.50,200.57 L592.00,228.57 L608.50,256.57 L641.50,256.57 Z" fill="#FFFFFF" opacity="0.5"/>
<path d="M658.00,628.57 L641.50,600.57 L608.50,600.57 L592.00,628.57 L608.50,656.57 L641.50,656.57 Z" fill="#FFFFFF" opacity="0.5"/>
<path d="M-142.00,-114.29 L-158.50,-142.29 L-191.50,-142.29 L-208.00,-114.29 L-191.50,-86.29 L-158.50,-86.29 Z" fill="none" stroke="#FFFFFF" stroke-width="3.2" opacity="0.36"/>
<path d="M-142.00,285.71 L-158.50,257.71 L-191.50,257.71 L-208.00,285.71 L-191.50,313.71 L-158.50,313.71 Z" fill="none" stroke="#FFFFFF" stroke-width="3.2" opacity="0.36"/>
<path d="M-142.00,685.71 L-158.50,657.71 L-191.50,657.71 L-208.00,685.71 L-191.50,713.71 L-158.50,713.71 Z" fill="none" stroke="#FFFFFF" stroke-width="3.2" opacity="0.36"/>
<path d="M258.00,-114.29 L241.50,-142.29 L208.50,-142.29 L192.00,-114.29 L208.50,-86.29 L241.50,-86.29 Z" fill="none" stroke="#FFFFFF" stroke-width="3.2" opacity="0.36"/>
<path d="M258.00,285.71 L241.50,257.71 L208.50,257.71 L192.00,285.71 L208.50,313.71 L241.50,313.71 Z" fill="none" stroke="#FFFFFF" stroke-width="3.2" opacity="0.36"/>
<path d="M258.00,685.71 L241.50,657.71 L208.50,657.71 L192.00,685.71 L208.50,713.71 L241.50,713.71 Z" fill="none" stroke="#FFFFFF" stroke-width="3.2" opacity="0.36"/>
<path d="M658.00,-114.29 L641.50,-142.29 L608.50,-142.29 L592.00,-114.29 L608.50,-86.29 L641.50,-86.29 Z" fill="none" stroke="#FFFFFF" stroke-width="3.2" opacity="0.36"/>
<path d="M658.00,285.71 L641.50,257.71 L608.50,257.71 L592.00,285.71 L608.50,313.71 L641.50,313.71 Z" fill="none" stroke="#FFFFFF" stroke-width="3.2" opacity="0.36"/>
<path d="M658.00,685.71 L641.50,657.71 L608.50,657.71 L592.00,685.71 L608.50,713.71 L641.50,713.71 Z" fill="none" stroke="#FFFFFF" stroke-width="3.2" opacity="0.36"/>
<path d="M-142.00,-57.14 L-158.50,-85.14 L-191.50,-85.14 L-208.00,-57.14 L-191.50,-29.14 L-158.50,-29.14 Z" fill="none" stroke="#FFFFFF" stroke-width="3.2" opacity="0.5"/>
<path d="M-142.00,342.86 L-158.50,314.86 L-191.50,314.86 L-208.00,342.86 L-191.50,370.86 L-158.50,370.86 Z" fill="none" stroke="#FFFFFF" stroke-width="3.2" opacity="0.5"/>
<path d="M-142.00,742.86 L-158.50,714.86 L-191.50,714.86 L-208.00,742.86 L-191.50,770.86 L-158.50,770.86 Z" fill="none" stroke="#FFFFFF" stroke-width="3.2" opacity="0.5"/>
<path d="M258.00,-57.14 L241.50,-85.14 L208.50,-85.14 L192.00,-57.14 L208.50,-29.14 L241.50,-29.14 Z" fill="none" stroke="#FFFFFF" stroke-width="3.2" opacity="0.5"/>
<path d="M258.00,342.86 L241.50,314.86 L208.50,314.86 L192.00,342.86 L208.50,370.86 L241.50,370.86 Z" fill="none" stroke="#FFFFFF" stroke-width="3.2" opacity="0.5"/>
<path d="M258.00,742.86 L241.50,714.86 L208.50,714.86 L192.00,742.86 L208.50,770.86 L241.50,770.86 Z" fill="none" stroke="#FFFFFF" stroke-width="3.2" opacity="0.5"/>
<path d="M658.00,-57.14 L641.50,-85.14 L608.50,-85.14 L592.00,-57.14 L608.50,-29.14 L641.50,-29.14 Z" fill="none" stroke="#FFFFFF" stroke-width="3.2" opacity="0.5"/>
<path d="M658.00,342.86 L641.50,314.86 L608.50,314.86 L592.00,342.86 L608.50,370.86 L641.50,370.86 Z" fill="none" stroke="#FFFFFF" stroke-width="3.2" opacity="0.5"/>
<path d="M658.00,742.86 L641.50,714.86 L608.50,714.86 L592.00,742.86 L608.50,770.86 L641.50,770.86 Z" fill="none" stroke="#FFFFFF" stroke-width="3.2" opacity="0.5"/>
<path d="M-92.00,-371.43 L-108.50,-399.43 L-141.50,-399.43 L-158.00,-371.43 L-141.50,-343.43 L-108.50,-343.43 Z" fill="#FFFFFF" opacity="0.5"/>
<path d="M-92.00,28.57 L-108.50,0.57 L-141.50,0.57 L-158.00,28.57 L-141.50,56.57 L-108.50,56.57 Z" fill="#FFFFFF" opacity="0.5"/>
<path d="M-92.00,428.57 L-108.50,400.57 L-141.50,400.57 L-158.00,428.57 L-141.50,456.57 L-108.50,456.57 Z" fill="#FFFFFF" opacity="0.5"/>
<path d="M308.00,-371.43 L291.50,-399.43 L258.50,-399.43 L242.00,-371.43 L258.50,-343.43 L291.50,-343.43 Z" fill="#FFFFFF" opacity="0.5"/>
<path d="M308.00,28.57 L291.50,0.57 L258.50,0.57 L242.00,28.57 L258.50,56.57 L291.50,56.57 Z" fill="#FFFFFF" opacity="0.5"/>
<path d="M308.00,428.57 L291.50,400.57 L258.50,400.57 L242.00,428.57 L258.50,456.57 L291.50,456.57 Z" fill="#FFFFFF" opacity="0.5"/>
<path d="M708.00,-371.43 L691.50,-399.43 L658.50,-399.43 L642.00,-371.43 L658.50,-343.43 L691.50,-343.43 Z" fill="#FFFFFF" opacity="0.5"/>
<path d="M708.00,28.57 L691.50,0.57 L658.50,0.57 L642.00,28.57 L658.50,56.57 L691.50,56.57 Z" fill="#FFFFFF" opacity="0.5"/>
<path d="M708.00,428.57 L691.50,400.57 L658.50,400.57 L642.00,428.57 L658.50,456.57 L691.50,456.57 Z" fill="#FFFFFF" opacity="0.5"/>
<path d="M-92.00,-314.29 L-108.50,-342.29 L-141.50,-342.29 L-158.00,-314.29 L-141.50,-286.29 L-108.50,-286.29 Z" fill="none" stroke="#FFFFFF" stroke-width="3.2" opacity="0.5"/>
<path d="M-92.00,85.71 L-108.50,57.71 L-141.50,57.71 L-158.00,85.71 L-141.50,113.71 L-108.50,113.71 Z" fill="none" stroke="#FFFFFF" stroke-width="3.2" opacity="0.5"/>
<path d="M-92.00,485.71 L-108.50,457.71 L-141.50,457.71 L-158.00,485.71 L-141.50,513.71 L-108.50,513.71 Z" fill="none" stroke="#FFFFFF" stroke-width="3.2" opacity="0.5"/>
<path d="M308.00,-314.29 L291.50,-342.29 L258.50,-342.29 L242.00,-314.29 L258.50,-286.29 L291.50,-286.29 Z" fill="none" stroke="#FFFFFF" stroke-width="3.2" opacity="0.5"/>
<path d="M308.00,85.71 L291.50,57.71 L258.50,57.71 L242.00,85.71 L258.50,113.71 L291.50,113.71 Z" fill="none" stroke="#FFFFFF" stroke-width="3.2" opacity="0.5"/>
<path d="M308.00,485.71 L291.50,457.71 L258.50,457.71 L242.00,485.71 L258.50,513.71 L291.50,513.71 Z" fill="none" stroke="#FFFFFF" stroke-width="3.2" opacity="0.5"/>
<path d="M708.00,-314.29 L691.50,-342.29 L658.50,-342.29 L642.00,-314.29 L658.50,-286.29 L691.50,-286.29 Z" fill="none" stroke="#FFFFFF" stroke-width="3.2" opacity="0.5"/>
<path d="M708.00,85.71 L691.50,57.71 L658.50,57.71 L642.00,85.71 L658.50,113.71 L691.50,113.71 Z" fill="none" stroke="#FFFFFF" stroke-width="3.2" opacity="0.5"/>
<path d="M708.00,485.71 L691.50,457.71 L658.50,457.71 L642.00,485.71 L658.50,513.71 L691.50,513.71 Z" fill="none" stroke="#FFFFFF" stroke-width="3.2" opacity="0.5"/>
<path d="M-92.00,-200.00 L-108.50,-228.00 L-141.50,-228.00 L-158.00,-200.00 L-141.50,-172.00 L-108.50,-172.00 Z" fill="none" stroke="#FFFFFF" stroke-width="3.2" opacity="0.18"/>
<path d="M-92.00,200.00 L-108.50,172.00 L-141.50,172.00 L-158.00,200.00 L-141.50,228.00 L-108.50,228.00 Z" fill="none" stroke="#FFFFFF" stroke-width="3.2" opacity="0.18"/>
<path d="M-92.00,600.00 L-108.50,572.00 L-141.50,572.00 L-158.00,600.00 L-141.50,628.00 L-108.50,628.00 Z" fill="none" stroke="#FFFFFF" stroke-width="3.2" opacity="0.18"/>
<path d="M308.00,-200.00 L291.50,-228.00 L258.50,-228.00 L242.00,-200.00 L258.50,-172.00 L291.50,-172.00 Z" fill="none" stroke="#FFFFFF" stroke-width="3.2" opacity="0.18"/>
<path d="M308.00,200.00 L291.50,172.00 L258.50,172.00 L242.00,200.00 L258.50,228.00 L291.50,228.00 Z" fill="none" stroke="#FFFFFF" stroke-width="3.2" opacity="0.18"/>
<path d="M308.00,600.00 L291.50,572.00 L258.50,572.00 L242.00,600.00 L258.50,628.00 L291.50,628.00 Z" fill="none" stroke="#FFFFFF" stroke-width="3.2" opacity="0.18"/>
<path d="M708.00,-200.00 L691.50,-228.00 L658.50,-228.00 L642.00,-200.00 L658.50,-172.00 L691.50,-172.00 Z" fill="none" stroke="#FFFFFF" stroke-width="3.2" opacity="0.18"/>
<path d="M708.00,200.00 L691.50,172.00 L658.50,172.00 L642.00,200.00 L658.50,228.00 L691.50,228.00 Z" fill="none" stroke="#FFFFFF" stroke-width="3.2" opacity="0.18"/>
<path d="M708.00,600.00 L691.50,572.00 L658.50,572.00 L642.00,600.00 L658.50,628.00 L691.50,628.00 Z" fill="none" stroke="#FFFFFF" stroke-width="3.2" opacity="0.18"/>
<path d="M-42.00,-400.00 L-58.50,-428.00 L-91.50,-428.00 L-108.00,-400.00 L-91.50,-372.00 L-58.50,-372.00 Z" fill="none" stroke="#FFFFFF" stroke-width="3.2" opacity="0.7"/>
<path d="M-42.00,0.00 L-58.50,-28.00 L-91.50,-28.00 L-108.00,0.00 L-91.50,28.00 L-58.50,28.00 Z" fill="none" stroke="#FFFFFF" stroke-width="3.2" opacity="0.7"/>
<path d="M-42.00,400.00 L-58.50,372.00 L-91.50,372.00 L-108.00,400.00 L-91.50,428.00 L-58.50,428.00 Z" fill="none" stroke="#FFFFFF" stroke-width="3.2" opacity="0.7"/>
<path d="M358.00,-400.00 L341.50,-428.00 L308.50,-428.00 L292.00,-400.00 L308.50,-372.00 L341.50,-372.00 Z" fill="none" stroke="#FFFFFF" stroke-width="3.2" opacity="0.7"/>
<path d="M358.00,0.00 L341.50,-28.00 L308.50,-28.00 L292.00,0.00 L308.50,28.00 L341.50,28.00 Z" fill="none" stroke="#FFFFFF" stroke-width="3.2" opacity="0.7"/>
<path d="M358.00,400.00 L341.50,372.00 L308.50,372.00 L292.00,400.00 L308.50,428.00 L341.50,428.00 Z" fill="none" stroke="#FFFFFF" stroke-width="3.2" opacity="0.7"/>
<path d="M758.00,-400.00 L741.50,-428.00 L708.50,-428.00 L692.00,-400.00 L708.50,-372.00 L741.50,-372.00 Z" fill="none" stroke="#FFFFFF" stroke-width="3.2" opacity="0.7"/>
<path d="M758.00,0.00 L741.50,-28.00 L708.50,-28.00 L692.00,0.00 L708.50,28.00 L741.50,28.00 Z" fill="none" stroke="#FFFFFF" stroke-width="3.2" opacity="0.7"/>
<path d="M758.00,400.00 L741.50,372.00 L708.50,372.00 L692.00,400.00 L708.50,428.00 L741.50,428.00 Z" fill="none" stroke="#FFFFFF" stroke-width="3.2" opacity="0.7"/>
<path d="M-42.00,-285.71 L-58.50,-313.71 L-91.50,-313.71 L-108.00,-285.71 L-91.50,-257.71 L-58.50,-257.71 Z" fill="none" stroke="#FFFFFF" stroke-width="3.2" opacity="0.18"/>
<path d="M-42.00,114.29 L-58.50,86.29 L-91.50,86.29 L-108.00,114.29 L-91.50,142.29 L-58.50,142.29 Z" fill="none" stroke="#FFFFFF" stroke-width="3.2" opacity="0.18"/>
<path d="M-42.00,514.29 L-58.50,486.29 L-91.50,486.29 L-108.00,514.29 L-91.50,542.29 L-58.50,542.29 Z" fill="none" stroke="#FFFFFF" stroke-width="3.2" opacity="0.18"/>
<path d="M358.00,-285.71 L341.50,-313.71 L308.50,-313.71 L292.00,-285.71 L308.50,-257.71 L341.50,-257.71 Z" fill="none" stroke="#FFFFFF" stroke-width="3.2" opacity="0.18"/>
<path d="M358.00,114.29 L341.50,86.29 L308.50,86.29 L292.00,114.29 L308.50,142.29 L341.50,142.29 Z" fill="none" stroke="#FFFFFF" stroke-width="3.2" opacity="0.18"/>
<path d="M358.00,514.29 L341.50,486.29 L308.50,486.29 L292.00,514.29 L308.50,542.29 L341.50,542.29 Z" fill="none" stroke="#FFFFFF" stroke-width="3.2" opacity="0.18"/>
<path d="M758.00,-285.71 L741.50,-313.71 L708.50,-313.71 L692.00,-285.71 L708.50,-257.71 L741.50,-257.71 Z" fill="none" stroke="#FFFFFF" stroke-width="3.2" opacity="0.18"/>
<path d="M758.00,114.29 L741.50,86.29 L708.50,86.29 L692.00,114.29 L708.50,142.29 L741.50,142.29 Z" fill="none" stroke="#FFFFFF" stroke-width="3.2" opacity="0.18"/>
<path d="M758.00,514.29 L741.50,486.29 L708.50,486.29 L692.00,514.29 L708.50,542.29 L741.50,542.29 Z" fill="none" stroke="#FFFFFF" stroke-width="3.2" opacity="0.18"/>
<path d="M-42.00,-228.57 L-58.50,-256.57 L-91.50,-256.57 L-108.00,-228.57 L-91.50,-200.57 L-58.50,-200.57 Z" fill="none" stroke="#FFFFFF" stroke-width="3.2" opacity="0.5"/>
<path d="M-42.00,171.43 L-58.50,143.43 L-91.50,143.43 L-108.00,171.43 L-91.50,199.43 L-58.50,199.43 Z" fill="none" stroke="#FFFFFF" stroke-width="3.2" opacity="0.5"/>
<path d="M-42.00,571.43 L-58.50,543.43 L-91.50,543.43 L-108.00,571.43 L-91.50,599.43 L-58.50,599.43 Z" fill="none" stroke="#FFFFFF" stroke-width="3.2" opacity="0.5"/>
<path d="M358.00,-228.57 L341.50,-256.57 L308.50,-256.57 L292.00,-228.57 L308.50,-200.57 L341.50,-200.57 Z" fill="none" stroke="#FFFFFF" stroke-width="3.2" opacity="0.5"/>
<path d="M358.00,171.43 L341.50,143.43 L308.50,143.43 L292.00,171.43 L308.50,199.43 L341.50,199.43 Z" fill="none" stroke="#FFFFFF" stroke-width="3.2" opacity="0.5"/>
<path d="M358.00,571.43 L341.50,543.43 L308.50,543.43 L292.00,571.43 L308.50,599.43 L341.50,599.43 Z" fill="none" stroke="#FFFFFF" stroke-width="3.2" opacity="0.5"/>
<path d="M758.00,-228.57 L741.50,-256.57 L708.50,-256.57 L692.00,-228.57 L708.50,-200.57 L741.50,-200.57 Z" fill="none" stroke="#FFFFFF" stroke-width="3.2" opacity="0.5"/>
<path d="M758.00,171.43 L741.50,143.43 L708.50,143.43 L692.00,171.43 L708.50,199.43 L741.50,199.43 Z" fill="none" stroke="#FFFFFF" stroke-width="3.2" opacity="0.5"/>
<path d="M758.00,571.43 L741.50,543.43 L708.50,543.43 L692.00,571.43 L708.50,599.43 L741.50,599.43 Z" fill="none" stroke="#FFFFFF" stroke-width="3.2" opacity="0.5"/>
<path d="M8.00,-257.14 L-8.50,-285.14 L-41.50,-285.14 L-58.00,-257.14 L-41.50,-229.14 L-8.50,-229.14 Z" fill="none" stroke="#FFFFFF" stroke-width="3.2" opacity="0.5"/>
<path d="M8.00,142.86 L-8.50,114.86 L-41.50,114.86 L-58.00,142.86 L-41.50,170.86 L-8.50,170.86 Z" fill="none" stroke="#FFFFFF" stroke-width="3.2" opacity="0.5"/>
<path d="M8.00,542.86 L-8.50,514.86 L-41.50,514.86 L-58.00,542.86 L-41.50,570.86 L-8.50,570.86 Z" fill="none" stroke="#FFFFFF" stroke-width="3.2" opacity="0.5"/>
<path d="M408.00,-257.14 L391.50,-285.14 L358.50,-285.14 L342.00,-257.14 L358.50,-229.14 L391.50,-229.14 Z" fill="none" stroke="#FFFFFF" stroke-width="3.2" opacity="0.5"/>
<path d="M408.00,142.86 L391.50,114.86 L358.50,114.86 L342.00,142.86 L358.50,170.86 L391.50,170.86 Z" fill="none" stroke="#FFFFFF" stroke-width="3.2" opacity="0.5"/>
<path d="M408.00,542.86 L391.50,514.86 L358.50,514.86 L342.00,542.86 L358.50,570.86 L391.50,570.86 Z" fill="none" stroke="#FFFFFF" stroke-width="3.2" opacity="0.5"/>
<path d="M808.00,-257.14 L791.50,-285.14 L758.50,-285.14 L742.00,-257.14 L758.50,-229.14 L791.50,-229.14 Z" fill="none" stroke="#FFFFFF" stroke-width="3.2" opacity="0.5"/>
<path d="M808.00,142.86 L791.50,114.86 L758.50,114.86 L742.00,142.86 L758.50,170.86 L791.50,170.86 Z" fill="none" stroke="#FFFFFF" stroke-width="3.2" opacity="0.5"/>
<path d="M808.00,542.86 L791.50,514.86 L758.50,514.86 L742.00,542.86 L758.50,570.86 L791.50,570.86 Z" fill="none" stroke="#FFFFFF" stroke-width="3.2" opacity="0.5"/>
<path d="M8.00,-200.00 L-8.50,-228.00 L-41.50,-228.00 L-58.00,-200.00 L-41.50,-172.00 L-8.50,-172.00 Z" fill="none" stroke="#FFFFFF" stroke-width="3.2" opacity="0.7"/>
<path d="M8.00,200.00 L-8.50,172.00 L-41.50,172.00 L-58.00,200.00 L-41.50,228.00 L-8.50,228.00 Z" fill="none" stroke="#FFFFFF" stroke-width="3.2" opacity="0.7"/>
<path d="M8.00,600.00 L-8.50,572.00 L-41.50,572.00 L-58.00,600.00 L-41.50,628.00 L-8.50,628.00 Z" fill="none" stroke="#FFFFFF" stroke-width="3.2" opacity="0.7"/>
<path d="M408.00,-200.00 L391.50,-228.00 L358.50,-228.00 L342.00,-200.00 L358.50,-172.00 L391.50,-172.00 Z" fill="none" stroke="#FFFFFF" stroke-width="3.2" opacity="0.7"/>
<path d="M408.00,200.00 L391.50,172.00 L358.50,172.00 L342.00,200.00 L358.50,228.00 L391.50,228.00 Z" fill="none" stroke="#FFFFFF" stroke-width="3.2" opacity="0.7"/>
<path d="M408.00,600.00 L391.50,572.00 L358.50,572.00 L342.00,600.00 L358.50,628.00 L391.50,628.00 Z" fill="none" stroke="#FFFFFF" stroke-width="3.2" opacity="0.7"/>
<path d="M808.00,-200.00 L791.50,-228.00 L758.50,-228.00 L742.00,-200.00 L758.50,-172.00 L791.50,-172.00 Z" fill="none" stroke="#FFFFFF" stroke-width="3.2" opacity="0.7"/>
<path d="M808.00,200.00 L791.50,172.00 L758.50,172.00 L742.00,200.00 L758.50,228.00 L791.50,228.00 Z" fill="none" stroke="#FFFFFF" stroke-width="3.2" opacity="0.7"/>
<path d="M808.00,600.00 L791.50,572.00 L758.50,572.00 L742.00,600.00 L758.50,628.00 L791.50,628.00 Z" fill="none" stroke="#FFFFFF" stroke-width="3.2" opacity="0.7"/>
<path d="M8.00,-28.57 L-8.50,-56.57 L-41.50,-56.57 L-58.00,-28.57 L-41.50,-0.57 L-8.50,-0.57 Z" fill="none" stroke="#FFFFFF" stroke-width="3.2" opacity="0.26"/>
<path d="M8.00,371.43 L-8.50,343.43 L-41.50,343.43 L-58.00,371.43 L-41.50,399.43 L-8.50,399.43 Z" fill="none" stroke="#FFFFFF" stroke-width="3.2" opacity="0.26"/>
<path d="M8.00,771.43 L-8.50,743.43 L-41.50,743.43 L-58.00,771.43 L-41.50,799.43 L-8.50,799.43 Z" fill="none" stroke="#FFFFFF" stroke-width="3.2" opacity="0.26"/>
<path d="M408.00,-28.57 L391.50,-56.57 L358.50,-56.57 L342.00,-28.57 L358.50,-0.57 L391.50,-0.57 Z" fill="none" stroke="#FFFFFF" stroke-width="3.2" opacity="0.26"/>
<path d="M408.00,371.43 L391.50,343.43 L358.50,343.43 L342.00,371.43 L358.50,399.43 L391.50,399.43 Z" fill="none" stroke="#FFFFFF" stroke-width="3.2" opacity="0.26"/>
<path d="M408.00,771.43 L391.50,743.43 L358.50,743.43 L342.00,771.43 L358.50,799.43 L391.50,799.43 Z" fill="none" stroke="#FFFFFF" stroke-width="3.2" opacity="0.26"/>
<path d="M808.00,-28.57 L791.50,-56.57 L758.50,-56.57 L742.00,-28.57 L758.50,-0.57 L791.50,-0.57 Z" fill="none" stroke="#FFFFFF" stroke-width="3.2" opacity="0.26"/>
<path d="M808.00,371.43 L791.50,343.43 L758.50,343.43 L742.00,371.43 L758.50,399.43 L791.50,399.43 Z" fill="none" stroke="#FFFFFF" stroke-width="3.2" opacity="0.26"/>
<path d="M808.00,771.43 L791.50,743.43 L758.50,743.43 L742.00,771.43 L758.50,799.43 L791.50,799.43 Z" fill="none" stroke="#FFFFFF" stroke-width="3.2" opacity="0.26"/>
</svg>